<svg xmlns="http://www.w3.org/2000/svg" viewBox="0 0 257.05 245.75"><defs><style>.cls-1{fill:#e64a19;}.cls-2{fill:#009688;}.cls-3{fill:#017264;}.cls-4{fill:#131a26;}.cls-5{fill:#242d3c;}.cls-6{fill:#fff;}</style></defs><title>product3</title><g id="Layer_4" data-name="Layer 4"><ellipse class="cls-1" cx="128.53" cy="122.87" rx="128.53" ry="122.87"/></g><g id="Layer_3" data-name="Layer 3"><rect class="cls-2" x="58.81" y="173.39" width="83.08" height="35.24"/><rect class="cls-3" x="58.81" y="170.93" width="83.08" height="35.24"/><rect class="cls-2" x="58.81" y="168.46" width="83.08" height="35.24"/><rect class="cls-3" x="58.81" y="166" width="83.08" height="35.24"/><rect class="cls-2" x="58.81" y="163.54" width="83.08" height="35.24"/><rect class="cls-3" x="58.81" y="161.07" width="83.08" height="35.24"/><rect class="cls-2" x="58.81" y="158.61" width="83.08" height="35.24"/><rect class="cls-3" x="58.81" y="156.15" width="83.08" height="35.24"/><path class="cls-2" d="M142.91,185.72a4.33,4.33,0,0,0-4.58,4h-65a4.33,4.33,0,0,0-4.58-4v-19.4a4.33,4.33,0,0,0,4.58-4h65a4.33,4.33,0,0,0,4.58,4Z" transform="translate(-5.45 -2.25)"/><path class="cls-3" d="M105.8,186.81C99,186.81,93.52,182,93.52,176S99,165.23,105.8,165.23s12.28,4.84,12.28,10.79S112.57,186.81,105.8,186.81Zm0-19.11c-5.22,0-9.47,3.74-9.47,8.32s4.25,8.32,9.47,8.32,9.47-3.74,9.47-8.32S111,167.7,105.8,167.7Z" transform="translate(-5.45 -2.25)"/><path class="cls-3" d="M107.06,177.26h-2.54a4.68,4.68,0,0,1-3.09-1.12,3.52,3.52,0,0,1,0-5.42,4.68,4.68,0,0,1,3.1-1.13h2.54V172h-2.54a1.7,1.7,0,0,0-1.12.41,1.28,1.28,0,0,0,0,1.95,1.69,1.69,0,0,0,1.11.4h2.54Z" transform="translate(-5.45 -2.25)"/><path class="cls-3" d="M111.44,173.41h-2.81a1.3,1.3,0,0,0-.47-1,1.67,1.67,0,0,0-1.1-.39v-2.46a4.68,4.68,0,0,1,3.09,1.12A3.62,3.62,0,0,1,111.44,173.41Z" transform="translate(-5.45 -2.25)"/><path class="cls-3" d="M104.53,182.46a4.68,4.68,0,0,1-3.08-1.11,3.61,3.61,0,0,1-1.29-2.72H103a1.31,1.31,0,0,0,.46,1,1.7,1.7,0,0,0,1.1.39Z" transform="translate(-5.45 -2.25)"/><path class="cls-3" d="M107.06,182.46h-2.54V180h2.54a1.67,1.67,0,0,0,1.11-.4,1.26,1.26,0,0,0,0-2,1.69,1.69,0,0,0-1.1-.39v-2.46a4.69,4.69,0,0,1,3.09,1.12,3.51,3.51,0,0,1,0,5.43A4.67,4.67,0,0,1,107.06,182.46Z" transform="translate(-5.45 -2.25)"/><rect class="cls-3" x="98.94" y="166.32" width="2.8" height="14.89"/><rect class="cls-3" x="116.5" y="172.54" width="10.68" height="2.46"/><rect class="cls-3" x="73.51" y="172.54" width="10.68" height="2.46"/><rect class="cls-4" x="127.18" y="53.61" width="2.27" height="128.08"/><path class="cls-5" d="M135,47.26a1.88,1.88,0,0,0-1.25-.46,1.93,1.93,0,0,0-1.25.46,1.46,1.46,0,0,0-.53,1.11v7.49h3.57V48.37A1.47,1.47,0,0,0,135,47.26Z" transform="translate(-5.45 -2.25)"/><path class="cls-5" d="M148.59,210.88c-9.17,0-16.61-6.54-16.61-14.58V183.94h3.57V196.3c0,6.31,5.85,11.46,13,11.46s13-5.15,13-11.46a1.8,1.8,0,0,1,3.56,0C165.17,204.34,157.73,210.88,148.59,210.88Z" transform="translate(-5.45 -2.25)"/><path class="cls-6" d="M133.26,60.81c-21.67.5-43.37,32.83-43.41,63.57-5.06-4.19-13-6.91-21.94-6.91-8.64,0-16.34,2.53-21.44,6.49C54.41,88.12,90.18,61,133.26,60.81Z" transform="translate(-5.45 -2.25)"/><path class="cls-5" d="M221,124c-5.07-4-12.79-6.49-21.43-6.49-8.93,0-16.88,2.71-21.93,6.91,0-30.74-21.75-63.08-43.39-63.57C177.34,61,213.12,88.12,221,124Z" transform="translate(-5.45 -2.25)"/><path class="cls-5" d="M133.76,60.8V124.4c-5-4.2-13-6.92-21.95-6.92s-16.9,2.72-21.94,6.92h0c0-30.74,21.74-63.08,43.41-63.57Z" transform="translate(-5.45 -2.25)"/><path class="cls-6" d="M177.68,124.38h0c-5-4.2-13-6.92-21.95-6.92s-16.9,2.72-21.95,6.92V60.8h.52C155.93,61.31,177.63,93.64,177.68,124.38Z" transform="translate(-5.45 -2.25)"/><path class="cls-5" d="M190.76,163c0,5.76-5.32,10.43-11.89,10.43S167,168.72,167,163s5.32-10.45,11.89-10.45S190.76,157.19,190.76,163Z" transform="translate(-5.45 -2.25)"/><path class="cls-6" d="M184,207.09c0,2.72-2.5,4.93-5.6,4.93s-5.59-2.2-5.59-4.93,2.5-4.92,5.59-4.92S184,204.38,184,207.09Z" transform="translate(-5.45 -2.25)"/><path class="cls-6" d="M171,141.23a4.12,4.12,0,1,1-4.09-3.59A3.87,3.87,0,0,1,171,141.23Z" transform="translate(-5.45 -2.25)"/><ellipse class="cls-6" cx="192.5" cy="149.29" rx="2.55" ry="2.24"/><path class="cls-5" d="M123.42,145.62c0,2.71-2.51,4.92-5.6,4.92s-5.6-2.21-5.6-4.92,2.51-4.93,5.6-4.93S123.42,142.9,123.42,145.62Z" transform="translate(-5.45 -2.25)"/><rect class="cls-6" x="49.11" y="71.14" width="2.98" height="12.63"/><rect class="cls-6" x="71.48" y="57.61" width="2.98" height="7.57"/><rect class="cls-6" x="112.74" y="15.25" width="2.98" height="8.95"/><rect class="cls-6" x="97.66" y="28.57" width="2.98" height="20.44"/><rect class="cls-6" x="159.98" y="36.61" width="2.98" height="7.94"/><rect class="cls-6" x="175.62" y="26.02" width="2.98" height="25.54"/><rect class="cls-6" x="194.15" y="55.93" width="2.98" height="18.58"/><rect class="cls-6" x="59.3" y="34.17" width="2.98" height="26.31"/></g></svg>