<?xml version="1.0" encoding="UTF-8"?>
<svg width="32px" height="32px" viewBox="0 0 32 32" version="1.1" xmlns="http://www.w3.org/2000/svg" xmlns:xlink="http://www.w3.org/1999/xlink">
    <!-- Generator: Sketch 49 (51002) - http://www.bohemiancoding.com/sketch -->
    <title>chedah-font-icon</title>
    <desc>Created with Sketch.</desc>
    <defs></defs>
    <g id="chedah-font-icon" stroke="none" stroke-width="1" fill="none" fill-rule="evenodd">
        <g id="Group" fill="#000000">
            <path d="M16,32 C7.163444,32 0,24.836556 0,16 C0,7.163444 7.163444,0 16,0 C24.836556,0 32,7.163444 32,16 C32,24.836556 24.836556,32 16,32 Z M14.5,22.5 C16.9852814,22.5 19,20.4852814 19,18 C19,15.5147186 16.9852814,13.5 14.5,13.5 C12.0147186,13.5 10,15.5147186 10,18 C10,20.4852814 12.0147186,22.5 14.5,22.5 Z M26,22.5 C27.1045695,22.5 28,21.8284271 28,21 C28,20.1715729 27.1045695,19.5 26,19.5 C24.8954305,19.5 24,20.1715729 24,21 C24,21.8284271 24.8954305,22.5 26,22.5 Z M10,30 C11.1045695,30 12,29.3284271 12,28.5 C12,27.6715729 11.1045695,27 10,27 C8.8954305,27 8,27.6715729 8,28.5 C8,29.3284271 8.8954305,30 10,30 Z M7.5,12 C9.43299662,12 11,10.209139 11,8 C11,5.790861 9.43299662,4 7.5,4 C5.56700338,4 4,5.790861 4,8 C4,10.209139 5.56700338,12 7.5,12 Z M24,9.5 C25.6568542,9.5 27,8.04492544 27,6.25 C27,4.45507456 25.6568542,3 24,3 C22.3431458,3 21,4.45507456 21,6.25 C21,8.04492544 22.3431458,9.5 24,9.5 Z" id="Combined-Shape"></path>
        </g>
    </g>
</svg>