<svg width="128px" height="128px" viewBox="0 0 128 128" version="1.1" xmlns="http://www.w3.org/2000/svg" xmlns:xlink="http://www.w3.org/1999/xlink">
    <desc>Chedah Gig Icon</desc>
    <defs></defs>
    <g id="Page-1" stroke="none" stroke-width="1" fill="none" fill-rule="evenodd">
        <g id="Artboard" transform="translate(-1098.000000, -274.000000)" fill="#000000">
            <path d="M1162,402 C1126.65378,402 1098,373.346224 1098,338 C1098,302.653776 1126.65378,274 1162,274 C1197.34622,274 1226,302.653776 1226,338 C1226,373.346224 1197.34622,402 1162,402 Z M1190.50299,299.437126 L1171.58084,299.437126 C1170.43113,299.245508 1168.64273,299.037925 1166.21557,298.814371 C1163.78841,298.590817 1162.07985,298.479042 1161.08982,298.479042 C1153.61673,298.479042 1147.86828,300.107768 1143.84431,303.365269 C1139.82034,306.622771 1137.80838,311.205559 1137.80838,317.113772 C1137.80838,320.914191 1138.61476,324.139707 1140.22754,326.790419 C1141.84033,329.441131 1144.05188,331.389215 1146.86228,332.634731 C1143.92414,334.423163 1141.99202,335.964065 1141.06587,337.257485 C1140.13972,338.550905 1139.67665,340.043904 1139.67665,341.736527 C1139.67665,343.269469 1140.29141,344.818355 1141.52096,346.383234 C1142.75051,347.948112 1144.1956,349.081833 1145.85629,349.784431 C1137.80834,351.668672 1133.78443,355.852263 1133.78443,362.335329 C1133.78443,367.157709 1135.86824,370.854279 1140.03593,373.42515 C1144.20361,375.996021 1150.13569,377.281437 1157.83234,377.281437 C1168.02001,377.281437 1175.93211,375.445128 1181.56886,371.772455 C1187.20562,368.099782 1190.02395,362.958117 1190.02395,356.347305 C1190.02395,346.095757 1183.94018,340.97006 1171.77246,340.97006 L1162.76647,340.97006 C1160.33931,340.97006 1158.37526,340.722557 1156.87425,340.227545 C1155.37325,339.732532 1154.62275,339.021961 1154.62275,338.095808 C1154.62275,337.361274 1154.84631,336.578846 1155.29341,335.748503 C1156.47506,336.003993 1158.07185,336.131737 1160.08383,336.131737 C1168.22759,336.131737 1174.35128,334.518978 1178.45509,331.293413 C1182.5589,328.067848 1184.61078,323.532963 1184.61078,317.688623 C1184.61078,315.229529 1184.09981,313.073862 1183.07784,311.221557 L1190.50299,308.491018 L1190.50299,299.437126 Z M1149.59281,360.467066 C1149.59281,359.093806 1150.28742,357.936132 1151.67665,356.994012 C1153.06588,356.051891 1154.76646,355.580838 1156.77844,355.580838 L1164.10778,355.580838 C1167.2056,355.580838 1169.58482,355.876245 1171.24551,356.467066 C1172.9062,357.057887 1173.73653,358.071849 1173.73653,359.508982 C1173.73653,361.297414 1172.37127,362.758477 1169.64072,363.892216 C1166.91017,365.025954 1163.27747,365.592814 1158.74251,365.592814 C1155.96406,365.592814 1153.74452,365.121761 1152.08383,364.179641 C1150.42315,363.23752 1149.59281,362.000008 1149.59281,360.467066 Z M1155.48503,317.209581 C1155.48503,311.652667 1157.41715,308.874251 1161.28144,308.874251 C1165.01798,308.874251 1166.88623,311.684603 1166.88623,317.305389 C1166.88623,320.05191 1166.39921,322.11177 1165.42515,323.48503 C1164.45109,324.85829 1163.06987,325.54491 1161.28144,325.54491 C1157.41715,325.54491 1155.48503,322.766495 1155.48503,317.209581 Z" id="Gig-Icon"></path>
        </g>
    </g>
</svg>
