<svg xmlns="http://www.w3.org/2000/svg" viewBox="0 0 257.05 245.75"><defs><style>.cls-1{fill:#263238;}.cls-2{fill:#fff;}.cls-3{fill:#3e4959;}.cls-4{fill:#e64a19;}.cls-5{fill:#242d3c;}</style></defs><title>product2</title><g id="Layer_4" data-name="Layer 4"><ellipse class="cls-1" cx="128.53" cy="122.87" rx="128.53" ry="122.87"/></g><g id="Layer_2" data-name="Layer 2"><path class="cls-2" d="M113.37,165.56c-1.26-.43-2.53-.9-3.77-1.41l1.43-3c1.17.48,2.36.92,3.55,1.33Zm43.66,0-1.22-3.07c1.19-.41,2.38-.85,3.54-1.33l1.43,3C159.55,164.62,158.28,165.09,157,165.52Zm-51.08-3c-1.19-.57-2.39-1.2-3.53-1.84l1.83-2.8c1.09.61,2.21,1.2,3.34,1.74Zm58.48,0-1.64-2.9c1.13-.55,2.25-1.14,3.33-1.75l1.83,2.8C166.8,161.28,165.62,161.9,164.43,162.48ZM99,158.62c-1.1-.71-2.19-1.47-3.25-2.25l2.2-2.56c1,.74,2,1.45,3.07,2.12Zm72.33,0-2-2.69c1-.68,2.07-1.39,3.06-2.13l2.2,2.56C173.53,157.1,172.44,157.86,171.34,158.58Zm-78.66-4.64c-1-.84-2-1.72-2.92-2.62L92.29,149c.89.85,1.82,1.68,2.75,2.47Zm85-.06-2.37-2.42c.94-.79,1.86-1.63,2.75-2.47l2.54,2.28C179.64,152.16,178.66,153,177.66,153.88ZM87,148.55c-.87-.95-1.73-1.94-2.53-2.93l2.82-2c.76.94,1.57,1.88,2.39,2.77Zm96.27-.07-2.69-2.12c.82-.9,1.63-1.83,2.39-2.78l2.83,2C185,146.54,184.17,147.53,183.3,148.48ZM82.17,142.54c-.74-1-1.45-2.12-2.11-3.21l3.07-1.62c.63,1,1.3,2,2,3Zm106-.08-3-1.79c.69-1,1.36-2,2-3l3.08,1.61C189.58,140.32,188.88,141.4,188.14,142.45ZM78.18,136c-.59-1.12-1.14-2.28-1.65-3.43l3.27-1.24c.48,1.09,1,2.18,1.56,3.24Zm113.94-.11-3.18-1.42c.55-1.06,1.07-2.16,1.55-3.25l3.27,1.23C193.26,133.61,192.7,134.77,192.12,135.89ZM75.13,129c-.43-1.18-.81-2.39-1.16-3.61l3.41-.84c.33,1.14.69,2.29,1.1,3.4Zm120-.13-3.35-1c.4-1.12.76-2.27,1.08-3.41l3.42.82C196,126.51,195.58,127.72,195.16,128.91ZM73.06,121.77c-.26-1.22-.48-2.47-.65-3.71l3.5-.42c.17,1.17.37,2.35.61,3.51Zm124.14-.14-3.46-.62c.24-1.16.44-2.34.6-3.51l3.5.41C197.67,119.15,197.46,120.4,197.2,121.63ZM72,114.32c-.09-1.24-.14-2.51-.14-3.76h3.53c0,1.18,0,2.38.13,3.55Zm126.21-.14-3.52-.2c.08-1.18.12-2.38.12-3.55v-.24h3.53v.24C198.35,111.67,198.31,112.93,198.22,114.18ZM75.52,107,72,106.8c.08-1.25.21-2.51.38-3.74l3.5.41C75.72,104.63,75.6,105.82,75.52,107Zm119.16-.37c-.09-1.18-.21-2.36-.38-3.53l3.5-.43c.18,1.23.31,2.5.4,3.74ZM76.47,100,73,99.34c.25-1.23.55-2.47.89-3.67l3.42.82C77,97.63,76.71,98.79,76.47,100Zm117.21-.36c-.25-1.16-.54-2.33-.86-3.46l3.41-.84c.34,1.2.65,2.43.91,3.66ZM78.39,93.09l-3.35-1c.42-1.19.89-2.38,1.4-3.54l3.27,1.22C79.23,90.84,78.79,92,78.39,93.09Zm113.33-.35c-.41-1.12-.86-2.24-1.34-3.33l3.26-1.24c.51,1.15,1,2.34,1.42,3.53ZM81.25,86.49l-3.18-1.42c.58-1.13,1.21-2.25,1.87-3.34L83,83.34C82.4,84.37,81.8,85.43,81.25,86.49Zm107.57-.32c-.55-1.06-1.15-2.11-1.78-3.14l3.07-1.62c.67,1.09,1.3,2.21,1.89,3.32ZM85,80.3l-3-1.79c.74-1.06,1.52-2.09,2.32-3.09l2.83,2C86.43,78.32,85.7,79.3,85,80.3ZM185,80c-.69-1-1.43-2-2.2-2.9l2.82-2c.81,1,1.59,2,2.33,3.07ZM89.57,74.6l-2.69-2.12c.87-1,1.79-1.89,2.72-2.79L92.14,72C91.26,72.81,90.39,73.7,89.57,74.6Zm90.88-.26c-.82-.89-1.69-1.77-2.58-2.62l2.53-2.29c.94.9,1.86,1.83,2.73,2.78ZM94.88,69.49,92.5,67.07c1-.84,2-1.67,3.08-2.45l2.21,2.55C96.8,67.91,95.82,68.69,94.88,69.49Zm80.23-.23c-.94-.79-1.92-1.56-2.92-2.3l2.19-2.57c1.06.78,2.09,1.59,3.09,2.43ZM100.84,65l-2-2.68c1.1-.72,2.24-1.41,3.38-2.06L104,63.09C103,63.71,101.88,64.37,100.84,65Zm68.27-.2c-1-.68-2.13-1.33-3.21-1.93l1.82-2.81c1.14.64,2.29,1.33,3.4,2Zm-61.75-3.5-1.64-2.9c1.19-.58,2.42-1.14,3.64-1.65l1.44,3C109.64,60.27,108.49,60.79,107.36,61.34Zm55.2-.17c-1.13-.55-2.29-1.06-3.45-1.53l1.42-3c1.23.5,2.46,1.05,3.66,1.63Zm-48.23-2.72-1.23-3.07c1.26-.44,2.56-.84,3.84-1.2l1,3.14C116.74,57.66,115.52,58,114.33,58.45Zm41.22-.14c-1.19-.4-2.41-.78-3.63-1.11l1-3.14c1.29.35,2.58.75,3.85,1.17Zm-33.9-1.9-.8-3.19c1.31-.28,2.65-.53,4-.73l.57,3.23C124.15,55.91,122.89,56.14,121.66,56.41Zm26.56-.09c-1.23-.26-2.5-.48-3.76-.66l.55-3.24c1.34.19,2.68.43,4,.7Zm-19-1.06L128.85,52c1.33-.12,2.69-.21,4-.25L133,55C131.75,55.06,130.46,55.14,129.2,55.26Zm11.47,0c-1.26-.11-2.55-.18-3.82-.21l.1-3.27c1.35,0,2.71.11,4,.22Z" transform="translate(-5.45 -2.25)"/><ellipse class="cls-3" cx="129.68" cy="178.3" rx="31.24" ry="13.06"/><path class="cls-4" d="M135.13,69.66c-24.25,0-43.91,18.27-43.91,40.76,0,9.38,3.68,17.79,9.1,24.84l34.82,45.29,34.81-45.29c5.42-7,9.08-15.48,9.08-24.83C179,87.93,159.38,69.66,135.13,69.66Z" transform="translate(-5.45 -2.25)"/><path class="cls-2" d="M166.36,110.42c0,16-14,29-31.23,29s-31.26-13-31.26-29,14-29,31.26-29S166.36,94.41,166.36,110.42Z" transform="translate(-5.45 -2.25)"/><path class="cls-5" d="M135.12,131.65c-12.61,0-22.88-9.52-22.88-21.23s10.27-21.23,22.88-21.23S158,98.72,158,110.42,147.73,131.65,135.12,131.65Zm0-39.75c-11,0-20,8.31-20,18.53s9,18.53,20,18.53,20-8.31,20-18.53S146.13,91.9,135.12,91.9Z" transform="translate(-5.45 -2.25)"/><path class="cls-5" d="M135.12,131.65c-6.83,0-12.18-9.32-12.18-21.23s5.35-21.23,12.18-21.23V91.9c-5,0-9.26,8.48-9.26,18.53s4.24,18.53,9.26,18.53Z" transform="translate(-5.45 -2.25)"/><path class="cls-5" d="M135.12,131.65v-2.7c5,0,9.24-8.48,9.24-18.53s-4.23-18.53-9.24-18.53V89.19c6.82,0,12.16,9.33,12.16,21.23S141.94,131.65,135.12,131.65Z" transform="translate(-5.45 -2.25)"/><rect class="cls-5" x="128.21" y="88.29" width="2.92" height="39.76"/><rect class="cls-5" x="108.26" y="106.82" width="42.82" height="2.71"/><path class="cls-5" d="M135.12,101.84a58.52,58.52,0,0,1-17.18-2.55l.92-2.57a56.21,56.21,0,0,0,32.51,0l.91,2.57A58.38,58.38,0,0,1,135.12,101.84Z" transform="translate(-5.45 -2.25)"/><path class="cls-5" d="M118.86,124.12l-.91-2.57a59.42,59.42,0,0,1,34.33,0l-.91,2.57A56.25,56.25,0,0,0,118.86,124.12Z" transform="translate(-5.45 -2.25)"/><path class="cls-4" d="M202.1,161.1c-10.34,0-18.74,7.79-18.74,17.39a17.35,17.35,0,0,0,3.89,10.6l14.86,19.33L217,189.09a17.39,17.39,0,0,0,3.88-10.6C220.83,168.89,212.45,161.1,202.1,161.1Z" transform="translate(-5.45 -2.25)"/><path class="cls-2" d="M209,178.49a6.95,6.95,0,1,1-6.93-6.43A6.69,6.69,0,0,1,209,178.49Z" transform="translate(-5.45 -2.25)"/><path class="cls-4" d="M68.14,161.1c-10.34,0-18.74,7.79-18.74,17.39a17.36,17.36,0,0,0,3.88,10.6l14.86,19.33L83,189.09a17.43,17.43,0,0,0,3.87-10.6C86.87,168.89,78.49,161.1,68.14,161.1Z" transform="translate(-5.45 -2.25)"/><path class="cls-2" d="M75.07,178.49a6.95,6.95,0,1,1-6.93-6.43A6.69,6.69,0,0,1,75.07,178.49Z" transform="translate(-5.45 -2.25)"/><ellipse class="cls-4" cx="121.89" cy="37.96" rx="6.32" ry="5.87"/><ellipse class="cls-4" cx="70.59" cy="92" rx="7.24" ry="6.72"/><ellipse class="cls-2" cx="163.02" cy="60.21" rx="10.76" ry="9.99"/><ellipse class="cls-2" cx="52.47" cy="72.09" rx="5.04" ry="4.68"/><ellipse class="cls-4" cx="36.38" cy="122.85" rx="2.52" ry="2.34"/><ellipse class="cls-2" cx="207.3" cy="88.29" rx="1.89" ry="1.76"/><ellipse class="cls-2" cx="207.3" cy="121.87" rx="3.72" ry="3.45"/><ellipse class="cls-4" cx="189.58" cy="95.33" rx="3.77" ry="3.5"/></g></svg>