<svg xmlns="http://www.w3.org/2000/svg" viewBox="0 0 257.05 245.75"><defs><style>.cls-1{fill:#009688;}.cls-2{fill:#242d3c;}.cls-3{fill:#fff;}.cls-4{fill:#3e4959;}.cls-5{fill:#e64a19;}.cls-6{fill:#017264;}.cls-7{fill:#d9d8d7;}</style></defs><title>product1</title><g id="Layer_4" data-name="Layer 4"><ellipse class="cls-1" cx="128.53" cy="122.87" rx="128.53" ry="122.87"/></g><g id="Layer_1" data-name="Layer 1"><path class="cls-2" d="M215.41,99.29H172.48a7.42,7.42,0,0,0-7.4,7.4V198a7.42,7.42,0,0,0,7.4,7.4h42.93a7.41,7.41,0,0,0,7.39-7.4V106.69A7.41,7.41,0,0,0,215.41,99.29Z" transform="translate(-5.45 -2.25)"/><rect class="cls-3" x="163.81" y="113.08" width="49.35" height="74.01"/><path class="cls-4" d="M189.37,199.64a2,2,0,0,1-2-2v-.6a2,2,0,0,1,2-2h9.15a2,2,0,0,1,2,2v.6a2,2,0,0,1-2,2Z" transform="translate(-5.45 -2.25)"/><circle class="cls-4" cx="188.5" cy="105.05" r="2.62"/><path class="cls-3" d="M195,107.31a1,1,0,0,1-2,0,1,1,0,1,1,2,0Z" transform="translate(-5.45 -2.25)"/><circle class="cls-5" cx="188.49" cy="139.69" r="16.84"/><path class="cls-3" d="M195.12,150.51h-2.38a5,5,0,0,1-5-5h2.86a2.13,2.13,0,0,0,2.14,2.14h2.38a2.17,2.17,0,0,0,1.53-.63,2.12,2.12,0,0,0,.62-1.51,2.14,2.14,0,0,0-2.15-2.14h-2.38a5,5,0,1,1,0-10h2.38a5,5,0,0,1,5,5h-2.86a2.13,2.13,0,0,0-.63-1.52,2.16,2.16,0,0,0-1.52-.63h-2.38a2.14,2.14,0,1,0,0,4.28h2.38a5,5,0,1,1,0,10Z" transform="translate(-5.45 -2.25)"/><rect class="cls-3" x="187.06" y="129.21" width="2.86" height="3.33"/><rect class="cls-3" x="187.06" y="146.83" width="2.86" height="3.33"/><rect class="cls-2" x="174.64" y="170.08" width="27.69" height="1.89"/><rect class="cls-2" x="181.29" y="166.3" width="14.4" height="1.89"/><rect class="cls-1" x="181.29" y="175.74" width="14.4" height="5.67"/><path class="cls-3" d="M202.66,88.62l-3.49,3.49a7.4,7.4,0,0,0-10.46,0l-3.49-3.49a12.33,12.33,0,0,1,17.44,0Z" transform="translate(-5.45 -2.25)"/><path class="cls-3" d="M209.62,81.65l-3.49,3.49a17.23,17.23,0,0,0-24.4,0l-3.49-3.49a22.16,22.16,0,0,1,31.37,0Z" transform="translate(-5.45 -2.25)"/><path class="cls-3" d="M216.6,74.68l-3.49,3.49a27.08,27.08,0,0,0-38.34,0l-3.49-3.49a32,32,0,0,1,45.31,0Z" transform="translate(-5.45 -2.25)"/><rect class="cls-2" x="38.55" y="42.24" width="110.96" height="160.88" rx="10.17" ry="10.17"/><path class="cls-4" d="M99.46,58.68a4,4,0,0,1,0-8,4,4,0,1,1,0,8Z" transform="translate(-5.45 -2.25)"/><path class="cls-3" d="M99.47,56.07a1.41,1.41,0,0,1,0-2.82,1.41,1.41,0,1,1,0,2.82Z" transform="translate(-5.45 -2.25)"/><rect class="cls-3" x="47.8" y="62.58" width="92.46" height="120.2"/><path class="cls-4" d="M112.42,195.2a3.24,3.24,0,0,0-3.23-3.24H89.77a3.24,3.24,0,0,0-3.24,3.24h0a3.24,3.24,0,0,0,3.24,3.24h19.42a3.24,3.24,0,0,0,3.23-3.24Z" transform="translate(-5.45 -2.25)"/><rect class="cls-1" x="54.74" y="115.72" width="6.55" height="9.45"/><rect class="cls-1" x="61.29" y="99.38" width="6.54" height="25.79"/><rect class="cls-6" x="67.84" y="107.98" width="6.55" height="17.2"/><rect class="cls-1" x="74.39" y="104.25" width="6.55" height="20.92"/><rect class="cls-1" x="80.93" y="110.99" width="6.54" height="14.18"/><rect class="cls-6" x="87.48" y="93.94" width="6.55" height="31.24"/><rect class="cls-1" x="94.03" y="104.82" width="6.54" height="20.35"/><rect class="cls-1" x="100.57" y="106.83" width="6.55" height="18.34"/><rect class="cls-6" x="107.12" y="99.38" width="6.55" height="25.79"/><rect class="cls-1" x="113.67" y="91.07" width="6.55" height="34.1"/><rect class="cls-1" x="120.22" y="87.35" width="6.55" height="37.83"/><rect class="cls-6" x="126.77" y="96.09" width="6.54" height="29.09"/><rect class="cls-6" x="87.48" y="77.77" width="3.57" height="3.57"/><rect class="cls-7" x="92.83" y="79.55" width="8.03" height="1.79"/><rect class="cls-1" x="103.7" y="77.77" width="3.57" height="3.57"/><rect class="cls-7" x="109.05" y="79.55" width="8.03" height="1.79"/><rect class="cls-1" x="119.93" y="77.77" width="3.57" height="3.57"/><rect class="cls-7" x="125.28" y="79.55" width="8.03" height="1.79"/><rect class="cls-2" x="54.74" y="74.79" width="26.19" height="6.54"/><rect class="cls-3" x="57.74" y="77.27" width="10.1" height="1.79"/><rect class="cls-7" x="54.74" y="83.12" width="26.19" height="1.78"/><rect class="cls-7" x="54.74" y="86.69" width="13.09" height="1.78"/><rect class="cls-7" x="82.67" y="153.11" width="50.64" height="3.49"/><rect class="cls-7" x="82.67" y="146.12" width="50.64" height="3.49"/><rect class="cls-7" x="82.67" y="139.14" width="50.64" height="3.49"/><rect class="cls-2" x="82.67" y="132.16" width="50.64" height="3.49"/><rect class="cls-7" x="54.74" y="160.09" width="78.57" height="3.49"/><rect class="cls-7" x="54.74" y="167.08" width="39.29" height="3.49"/><rect class="cls-5" x="54.74" y="132.16" width="24.44" height="24.44"/></g></svg>