<svg id="Layer_1" data-name="Layer 1" xmlns="http://www.w3.org/2000/svg" viewBox="0 0 230.92 137.51"><defs><style>.cls-1,.cls-9{fill:#242d3c;}.cls-2{fill:#fff;}.cls-3{fill:#3e4959;}.cls-4{fill:#e6e5e5;}.cls-5{fill:#cccbca;}.cls-6{fill:#d9d8d7;}.cls-7{fill:#f15424;}.cls-8{fill:#009688;}.cls-8,.cls-9{fill-rule:evenodd;}</style></defs><title>product4</title><path class="cls-1" d="M29.32,167.42V47.76a6.33,6.33,0,0,1,6.3-6.3H212a6.31,6.31,0,0,1,6.3,6.3V167.42Z" transform="translate(-8.33 -41.46)"/><rect class="cls-2" x="31.48" y="10.5" width="167.94" height="104.96"/><path class="cls-3" d="M126.42,46.72a2.63,2.63,0,1,1-2.64-2.62A2.64,2.64,0,0,1,126.42,46.72Z" transform="translate(-8.33 -41.46)"/><path class="cls-2" d="M124.85,46.72a1.05,1.05,0,1,1-1.06-1A1.05,1.05,0,0,1,124.85,46.72Z" transform="translate(-8.33 -41.46)"/><rect class="cls-4" y="125.96" width="230.92" height="4.2"/><path class="cls-5" d="M239.25,171.63a7.37,7.37,0,0,1-7.36,7.35H15.67a7.33,7.33,0,0,1-7.34-7.35H239.25Z" transform="translate(-8.33 -41.46)"/><rect class="cls-5" x="94.47" y="125.96" width="41.98" height="2.1"/><rect class="cls-1" x="42.71" y="53.23" width="11" height="8.64"/><rect class="cls-6" x="59.21" y="36.97" width="11" height="24.9"/><rect class="cls-6" x="75.71" y="46.8" width="10.99" height="15.07"/><rect class="cls-7" x="92.2" y="21.74" width="10.99" height="40.13"/><rect class="cls-6" x="108.69" y="31.73" width="10.99" height="30.14"/><rect class="cls-1" x="42.71" y="71.03" width="76.97" height="4.19"/><rect class="cls-5" x="42.71" y="79.41" width="76.97" height="4.19"/><rect class="cls-5" x="42.71" y="87.78" width="76.97" height="4.19"/><rect class="cls-5" x="42.71" y="96.16" width="38.49" height="4.19"/><path class="cls-1" d="M231.67,70H187.58a7.62,7.62,0,0,0-7.59,7.6v93.73a7.62,7.62,0,0,0,7.59,7.59h44.09a7.6,7.6,0,0,0,7.58-7.59V77.65A7.61,7.61,0,0,0,231.67,70Z" transform="translate(-8.33 -41.46)"/><rect class="cls-2" x="175.96" y="45.06" width="50.69" height="75.99"/><path class="cls-3" d="M204.94,173.09a2.05,2.05,0,0,1-2-2v-.62a2,2,0,0,1,2-2h9.39a2,2,0,0,1,2,2V171a2,2,0,0,1-2,2Z" transform="translate(-8.33 -41.46)"/><path class="cls-3" d="M211.53,78.28a1.89,1.89,0,0,1-1.89,1.91,1.91,1.91,0,1,1,1.89-1.91Z" transform="translate(-8.33 -41.46)"/><path class="cls-1" d="M210.39,78.28a.76.76,0,0,1-.75.76.76.76,0,1,1,.75-.76Z" transform="translate(-8.33 -41.46)"/><path class="cls-8" d="M206.18,86.52A3.45,3.45,0,0,1,209.63,90v40a3.45,3.45,0,0,1-3.45,3.45H142.7a3.43,3.43,0,0,1-2.44-1,3.48,3.48,0,0,1-1-2.44V90a3.45,3.45,0,0,1,1-2.44,3.49,3.49,0,0,1,2.44-1Z" transform="translate(-8.33 -41.46)"/><rect class="cls-1" x="139.68" y="82.87" width="11" height="2.38"/><rect class="cls-1" x="153.63" y="82.87" width="11" height="2.37"/><polygon class="cls-9" points="178.59 85.25 167.58 85.24 167.58 82.87 178.59 82.87 178.59 85.25"/><rect class="cls-1" x="181.53" y="82.87" width="11" height="2.38"/><rect class="cls-2" x="139.68" y="68.72" width="11" height="7.45"/><rect class="cls-2" x="153.63" y="68.72" width="11" height="7.45"/><rect class="cls-1" x="130.92" y="51.93" width="70.38" height="9.94"/><rect class="cls-2" x="190.12" y="55.7" width="2.42" height="2.41"/><rect class="cls-2" x="185.28" y="55.7" width="2.42" height="2.41"/><rect class="cls-2" x="180.45" y="55.7" width="2.41" height="2.41"/><rect class="cls-1" x="183.19" y="108.14" width="18.11" height="6.52"/><rect class="cls-7" x="201.3" y="98.36" width="18.11" height="6.52"/><rect class="cls-1" x="206.72" y="51.93" width="14.49" height="4.19"/><rect class="cls-1" x="206.72" y="60.31" width="14.49" height="4.19"/><rect class="cls-1" x="206.72" y="68.69" width="7.24" height="4.19"/></svg>